<svg width="35" height="35" viewBox="0 0 35 35" fill="none" xmlns="http://www.w3.org/2000/svg">
<path d="M17.5 34.5C15.1971 34.5 12.9966 34.052 10.8943 33.1558C8.78449 32.2563 6.97616 31.0493 5.46342 29.5366C3.95067 28.0238 2.74368 26.2155 1.84422 24.1057C0.947993 22.0034 0.5 19.8029 0.5 17.5C0.5 15.1971 0.947993 12.9966 1.84422 10.8943C2.74368 8.78449 3.95067 6.97616 5.46342 5.46342C6.97616 3.95067 8.78449 2.74368 10.8943 1.84422C12.9966 0.947993 15.1971 0.5 17.5 0.5C19.8029 0.5 22.0034 0.947993 24.1057 1.84422C26.2155 2.74368 28.0238 3.95067 29.5366 5.46342C31.0493 6.97616 32.2563 8.78449 33.1558 10.8943C34.052 12.9966 34.5 15.1971 34.5 17.5C34.5 19.8029 34.052 22.0034 33.1558 24.1057C32.2563 26.2155 31.0493 28.0238 29.5366 29.5366C28.0238 31.0493 26.2155 32.2563 24.1057 33.1558C22.0034 34.052 19.8029 34.5 17.5 34.5ZM9.84375 8.25C8.20618 8.25 6.79188 8.83891 5.62789 10.0029C4.46391 11.1669 3.875 12.5812 3.875 14.2188C3.875 15.8563 4.46391 17.2706 5.62789 18.4346C6.79188 19.5986 8.20618 20.1875 9.84375 20.1875C11.4813 20.1875 12.8956 19.5986 14.0596 18.4346C15.2236 17.2706 15.8125 15.8563 15.8125 14.2188C15.8125 12.5812 15.2236 11.1669 14.0596 10.0029C12.8956 8.83891 11.4813 8.25 9.84375 8.25ZM14.2188 25.75C13.785 25.75 13.4029 25.9144 13.0962 26.2212C12.7894 26.5279 12.625 26.91 12.625 27.3438C12.625 27.7775 12.7894 28.1596 13.0962 28.4663C13.4029 28.7731 13.785 28.9375 14.2188 28.9375H20.7812C21.215 28.9375 21.5971 28.7731 21.9038 28.4663C22.2106 28.1596 22.375 27.7775 22.375 27.3438C22.375 26.91 22.2106 26.5279 21.9038 26.2212C21.5971 25.9144 21.215 25.75 20.7812 25.75H14.2188ZM25.1562 8.25C23.5187 8.25 22.1044 8.83891 20.9404 10.0029C19.7764 11.1669 19.1875 12.5812 19.1875 14.2188C19.1875 15.8563 19.7764 17.2706 20.9404 18.4346C22.1044 19.5986 23.5187 20.1875 25.1562 20.1875C26.7938 20.1875 28.2081 19.5986 29.3721 18.4346C30.5361 17.2706 31.125 15.8563 31.125 14.2188C31.125 12.5812 30.5361 11.1669 29.3721 10.0029C28.2081 8.83891 26.7938 8.25 25.1562 8.25ZM24.0796 17C23.6104 17 23.2186 16.8377 22.878 16.497C22.5373 16.1564 22.375 15.7646 22.375 15.2954C22.375 14.8266 22.5369 14.4431 22.8732 14.1156C23.2129 13.7848 23.6062 13.625 24.0796 13.625C24.5527 13.625 24.9377 13.7844 25.2641 14.1109C25.5886 14.4354 25.75 14.8251 25.75 15.3125C25.75 15.7999 25.5886 16.1896 25.2641 16.5141C24.9377 16.8406 24.5527 17 24.0796 17ZM10.9546 17C10.4854 17 10.0936 16.8377 9.75297 16.497C9.41232 16.1564 9.25 15.7646 9.25 15.2954C9.25 14.8266 9.41187 14.4431 9.74822 14.1156C10.0879 13.7848 10.4812 13.625 10.9546 13.625C11.4277 13.625 11.8127 13.7844 12.1391 14.1109C12.4636 14.4354 12.625 14.8251 12.625 15.3125C12.625 15.7999 12.4636 16.1896 12.1391 16.5141C11.8127 16.8406 11.4277 17 10.9546 17Z" fill="black" stroke="black"/>
</svg>
