<svg width="144" height="122" viewBox="0 0 144 122" fill="none" xmlns="http://www.w3.org/2000/svg">
<path d="M33.2476 37.6906C33.2476 46.7657 25.8907 54.1226 16.8156 54.1226C7.7405 54.1226 0.383667 46.7657 0.383667 37.6906C0.383667 32.9059 2.4287 28.5988 5.69238 25.5958C8.61887 22.903 12.5252 21.2587 16.8156 21.2587C25.8907 21.2587 33.2476 28.6155 33.2476 37.6906Z" fill="#D15842"/>
<path d="M80.6713 37.6906C80.6713 46.7657 73.3145 54.1226 64.2393 54.1226C55.1642 54.1226 47.8074 46.7657 47.8074 37.6906C47.8074 36.5314 47.9274 35.4002 48.1558 34.3088C49.7149 26.8561 56.3235 21.2587 64.2393 21.2587C73.3145 21.2587 80.6713 28.6155 80.6713 37.6906Z" fill="#D15842"/>
<path d="M62.2177 18.0465C62.2177 26.3168 56.1079 33.1601 48.1558 34.3088C47.3819 34.4206 46.5906 34.4785 45.7858 34.4785C37.81 34.4785 31.1613 28.796 29.6677 21.2587C29.4618 20.2199 29.3539 19.1458 29.3539 18.0465C29.3539 16.6028 29.54 15.2025 29.8897 13.8685C31.7381 6.81684 38.1544 1.61456 45.7858 1.61456C54.8609 1.61456 62.2177 8.9714 62.2177 18.0465Z" fill="#D15842"/>
<path d="M33.2476 37.6906C33.2476 46.7657 25.8907 54.1226 16.8156 54.1226H64.2393C55.1642 54.1226 47.8074 46.7657 47.8074 37.6906C47.8074 36.5314 47.9274 35.4002 48.1558 34.3088C47.3819 34.4206 46.5906 34.4785 45.7858 34.4785C37.81 34.4785 31.1613 28.796 29.6677 21.2587H18.949H16.8156C25.8907 21.2587 33.2476 28.6155 33.2476 37.6906Z" fill="#D15842"/>
<path d="M29.6677 21.2587C29.4618 20.2199 29.3539 19.1458 29.3539 18.0465C29.3539 16.6028 29.54 15.2025 29.8897 13.8685C28.5166 16.3319 24.4061 21.2587 18.949 21.2587H29.6677Z" fill="#D15842"/>
<path d="M112.487 24.7286C112.487 30.7392 107.614 35.6117 101.604 35.6117C95.5931 35.6117 90.7206 30.7392 90.7206 24.7286C90.7206 21.5596 92.075 18.707 94.2366 16.718C96.1749 14.9346 98.7621 13.8455 101.604 13.8455C107.614 13.8455 112.487 18.7181 112.487 24.7286Z" fill="#D15842"/>
<path d="M143.896 24.7286C143.896 30.7392 139.024 35.6117 133.013 35.6117C127.002 35.6117 122.13 30.7392 122.13 24.7286C122.13 23.9608 122.209 23.2116 122.361 22.4888C123.393 17.5528 127.77 13.8455 133.013 13.8455C139.024 13.8455 143.896 18.7181 143.896 24.7286Z" fill="#D15842"/>
<path d="M131.674 11.7181C131.674 17.1956 127.627 21.728 122.361 22.4888C121.848 22.5628 121.324 22.6011 120.791 22.6011C115.508 22.6011 111.105 18.8376 110.116 13.8455C109.979 13.1575 109.908 12.4461 109.908 11.7181C109.908 10.7619 110.031 9.83448 110.263 8.95092C111.487 4.28052 115.737 0.834991 120.791 0.834991C126.802 0.834991 131.674 5.70751 131.674 11.7181Z" fill="#D15842"/>
<path d="M112.487 24.7286C112.487 30.7392 107.614 35.6117 101.604 35.6117H133.013C127.002 35.6117 122.13 30.7392 122.13 24.7286C122.13 23.9608 122.209 23.2116 122.361 22.4888C121.848 22.5628 121.324 22.6011 120.791 22.6011C115.508 22.6011 111.105 18.8376 110.116 13.8455H103.017H101.604C107.614 13.8455 112.487 18.7181 112.487 24.7286Z" fill="#D15842"/>
<path d="M110.116 13.8455C109.979 13.1575 109.908 12.4461 109.908 11.7181C109.908 10.7619 110.031 9.83448 110.263 8.95092C109.353 10.5825 106.631 13.8455 103.017 13.8455H110.116Z" fill="#D15842"/>
<circle cx="80.8061" cy="75.1923" r="14.5666" transform="rotate(-30 80.8061 75.1923)" fill="#D15842"/>
<path d="M86.69 75.5441C87.2099 76.4445 87.3447 77.3801 87.0945 78.351C86.8442 79.3218 86.3062 80.1859 85.4806 80.9433L86.1084 82.0308C86.284 82.3348 86.3239 82.647 86.2282 82.9673C86.1509 83.2926 85.9603 83.543 85.6562 83.7185C85.3639 83.8873 85.0575 83.9238 84.7372 83.8281C84.4237 83.7441 84.1791 83.5501 84.0036 83.246L83.4364 82.2638C82.7712 82.5699 82.1147 82.7696 81.467 82.8629C80.8309 82.9495 80.1458 82.9241 79.4116 82.7866C78.9339 82.6883 78.5971 82.4695 78.4013 82.1304C78.246 81.8615 78.2104 81.5702 78.2944 81.2566C78.3717 80.9314 78.5506 80.6877 78.8313 80.5257C79.0535 80.3974 79.2928 80.3528 79.5492 80.3918C80.0805 80.4749 80.5605 80.5096 80.9892 80.496C81.4111 80.4706 81.8319 80.3758 82.2516 80.2115L80.2768 76.7911C77.6765 77.7154 75.8228 77.2187 74.7156 75.3009C74.1552 74.3303 74.0235 73.3461 74.3206 72.3483C74.6108 71.3387 75.2358 70.4634 76.1956 69.7222L75.8614 69.1433C75.6858 68.8393 75.6401 68.5305 75.7241 68.2169C75.8131 67.8849 76.0096 67.6311 76.3136 67.4556C76.6059 67.2868 76.9123 67.2503 77.2326 67.346C77.5462 67.43 77.7907 67.624 77.9662 67.9281L78.341 68.5771C79.4362 68.1786 80.4641 68.0685 81.4245 68.2468C81.9189 68.32 82.2674 68.532 82.4699 68.8828C82.6252 69.1517 82.6642 69.4488 82.587 69.7741C82.5029 70.0877 82.3265 70.3221 82.0575 70.4774C81.8821 70.5786 81.6938 70.6172 81.4928 70.5929C80.9732 70.5031 80.331 70.5387 79.5663 70.6995L81.4398 73.9445C82.7294 73.5586 83.7834 73.4802 84.6017 73.7094C85.4133 73.9268 86.1094 74.5384 86.69 75.5441ZM76.7347 74.0182C76.9575 74.4041 77.2626 74.649 77.6499 74.7528C78.0305 74.8449 78.5011 74.8227 79.0615 74.6862L77.3804 71.7744C76.955 72.1448 76.6904 72.5236 76.5866 72.911C76.4828 73.2983 76.5322 73.6674 76.7347 74.0182ZM84.2653 78.8384C84.5234 78.5023 84.6936 78.1623 84.7758 77.8186C84.8512 77.4632 84.8113 77.1511 84.6561 76.8821C84.467 76.5547 84.2114 76.328 83.8893 76.2022C83.5604 76.0646 83.1558 76.0254 82.6754 76.0845L84.2653 78.8384Z" fill="#ED654C"/>
<circle cx="43.3148" cy="101.594" r="14.5666" transform="rotate(30 43.3148 101.594)" fill="#D15842"/>
<path d="M45.9518 106.866C45.4319 107.766 44.689 108.351 43.7231 108.619C42.7572 108.888 41.7399 108.854 40.6712 108.518L40.0433 109.605C39.8678 109.909 39.6174 110.1 39.2921 110.177C38.9718 110.273 38.6596 110.233 38.3556 110.058C38.0632 109.889 37.8784 109.642 37.8012 109.317C37.7171 109.003 37.7629 108.694 37.9384 108.39L38.5056 107.408C37.9078 106.985 37.4066 106.516 37.002 106.002C36.6089 105.494 36.2884 104.888 36.0403 104.184C35.8866 103.721 35.9077 103.32 36.1035 102.981C36.2587 102.712 36.4932 102.535 36.8067 102.451C37.1271 102.355 37.4275 102.389 37.7082 102.551C37.9304 102.679 38.0887 102.864 38.183 103.105C38.3768 103.607 38.5867 104.04 38.8129 104.405C39.0458 104.757 39.3383 105.074 39.6904 105.356L41.6652 101.935C39.5646 100.145 39.0679 98.2917 40.1751 96.374C40.7355 95.4034 41.522 94.7972 42.5347 94.5556C43.5541 94.3022 44.6247 94.4058 45.7464 94.8663L46.0806 94.2875C46.2562 93.9834 46.5007 93.7894 46.8143 93.7054C47.1463 93.6164 47.4643 93.6597 47.7684 93.8352C48.0607 94.004 48.2455 94.251 48.3228 94.5763C48.4068 94.8899 48.3611 95.1987 48.1855 95.5027L47.8108 96.1517C48.7035 96.901 49.3128 97.7361 49.6386 98.657C49.8225 99.1218 49.8131 99.5296 49.6106 99.8804C49.4553 100.149 49.2175 100.332 48.8972 100.427C48.5836 100.511 48.2923 100.476 48.0234 100.32C47.848 100.219 47.7205 100.075 47.6409 99.8892C47.4589 99.3943 47.1071 98.856 46.5854 98.2741L44.7119 101.519C45.6909 102.443 46.2858 103.317 46.4965 104.14C46.714 104.951 46.5324 105.86 45.9518 106.866ZM42.2955 97.4813C42.0727 97.8672 42.0132 98.2538 42.117 98.6411C42.2276 99.0168 42.482 99.4132 42.8805 99.8303L44.5616 96.9186C44.0281 96.7353 43.5677 96.6956 43.1804 96.7994C42.793 96.9031 42.4981 97.1305 42.2955 97.4813ZM41.8865 106.413C42.3066 106.468 42.686 106.446 43.0248 106.345C43.3703 106.233 43.6207 106.042 43.776 105.773C43.965 105.446 44.0335 105.111 43.9815 104.769C43.9361 104.416 43.7678 104.046 43.4764 103.659L41.8865 106.413Z" fill="#ED654C"/>
</svg>
